<?xml version="1.0" encoding="utf-8"?>
<svg width="13px" height="15px" viewBox="0 0 13 15" version="1.1" xmlns:xlink="http://www.w3.org/1999/xlink" xmlns="http://www.w3.org/2000/svg">
  <path d="M13 1L3.25 1C3.25 0.447495 2.88641 0 2.4375 0L0 0L0 1L1.625 1L2.2352 7.43851C1.86346 7.80499 1.625 8.368 1.625 9C1.625 10.1045 2.35258 11 3.25 11L13 11L13 10L3.25 10C2.80109 10 2.4375 9.55249 2.4375 9L2.4375 8.98999L13 7L13 1L13 1ZM5.82373 13.5C5.82373 12.6715 5.15224 12 4.32373 12C3.49522 12 2.82373 12.6715 2.82373 13.5C2.82373 14.3285 3.49522 15 4.32373 15C5.15224 15 5.82373 14.3285 5.82373 13.5L5.82373 13.5ZM13 13.5C13 12.6715 12.3285 12 11.5 12C10.6715 12 10 12.6715 10 13.5C10 14.3285 10.6715 15 11.5 15C12.3285 15 13 14.3285 13 13.5L13 13.5Z" id="cart" fill="#000000" stroke="none" />
</svg>