<?xml version="1.0" encoding="utf-8"?>
<svg width="27.46045px" height="49.022736px" viewBox="0 0 27.46045 49.022736" version="1.1" xmlns:xlink="http://www.w3.org/1999/xlink" xmlns="http://www.w3.org/2000/svg">
  <defs>
    <linearGradient gradientUnits="userSpaceOnUse" x1="13.730139" y1="49.022736" x2="13.730199" y2="9.981433E-06" id="gradient_1">
      <stop offset="0%" stop-color="#8F1313" />
      <stop offset="100%" stop-color="#C52214" />
    </linearGradient>
  </defs>
  <path d="M22.202 20.1804C22.0446 23.2383 21.8895 26.2626 21.7321 29.2953C22.9318 29.4233 22.9633 29.5743 23.2506 27.8C23.9015 27.7738 24.5533 27.7822 25.2032 27.8251C25.4381 27.8503 25.6919 28.1146 25.8513 28.3327C26.514 29.2471 26.4805 30.9795 25.8387 31.8981C25.6298 32.2417 25.2481 32.4419 24.8467 32.4182C24.3203 32.3973 23.798 32.4182 23.2632 32.4182C23.173 31.852 23.0975 31.3696 23.0178 30.8851L21.6797 30.8851C21.6483 31.4283 21.579 31.982 21.5938 32.5357C21.6277 34.3851 21.2554 36.2193 20.5031 37.9091C19.8593 39.4149 19.3349 40.9565 19.3915 42.6595L7.94019 42.6595C8.05554 40.3986 6.98169 38.4648 6.29379 36.4388C5.94128 35.3912 5.76138 34.2933 5.76105 33.188C5.76105 32.4329 5.76105 31.68 5.76105 30.862C5.31644 30.862 4.98715 30.8411 4.66415 30.8746C4.54019 30.9184 4.44391 31.0178 4.40408 31.1431C4.31601 31.5227 4.26987 31.9107 4.19437 32.4203C3.61346 32.4445 3.03171 32.4381 2.45148 32.4015C2.15973 32.3542 1.89389 32.2057 1.70065 31.982C0.943512 31.0781 0.93512 29.224 1.63144 28.2635C1.83487 27.9364 2.20123 27.7472 2.58572 27.7706C3.12473 27.8 3.66583 27.7706 4.18179 27.7706C4.27197 28.1901 4.34537 28.5026 4.40408 28.8192C4.4859 29.2492 4.72498 29.438 5.16544 29.3583C5.29544 29.3352 5.42969 29.3415 5.62054 29.3289C5.46323 26.271 5.30804 23.2467 5.15073 20.1846L4.00562 20.1846C3.95319 20.5432 3.87766 20.9103 3.85458 21.2815C3.83783 21.5353 3.7728 21.6821 3.49594 21.6842C2.95065 21.6842 2.40326 21.7303 1.86215 21.6842C1.63025 21.6364 1.42285 21.5078 1.27698 21.3214C0.500977 20.4006 0.486298 18.5403 1.20987 17.5671C1.4187 17.242 1.78687 17.0551 2.17255 17.0785L3.76862 17.1624C4.0098 17.8041 3.68262 18.9136 5.05426 18.6494C4.89697 15.6481 4.73758 12.651 4.58026 9.63089L3.32187 9.63089C3.24637 10.0986 3.16876 10.5684 3.0744 11.1556C2.47037 11.1556 1.83908 11.1892 1.21408 11.1368C0.963898 11.0876 0.740204 10.9489 0.584869 10.7467C-0.180634 9.84061 -0.191132 7.94675 0.53244 7.00085C0.733612 6.68994 1.08542 6.51004 1.45526 6.52896C1.99426 6.55411 2.53748 6.52896 3.05762 6.52896C3.1478 6.94843 3.20862 7.25464 3.27783 7.56082C3.36801 7.96353 3.57147 8.20889 4.03287 8.11664C4.18655 8.09695 4.34146 8.08853 4.49637 8.09146C4.45023 7.13928 4.40201 6.20386 4.36215 5.27475C4.30762 4.00589 4.2363 2.73489 4.21533 1.46603C4.19437 0.509644 4.74597 0 5.72122 0C11.0344 0 16.3477 0 21.6608 0C22.59 0 23.129 0.488678 23.1143 1.41568C23.0703 3.33682 22.9675 5.25589 22.8857 7.17493C22.8731 7.47485 22.8542 7.77267 22.8374 8.06628C23.9784 8.19421 24.1231 8.34314 24.3391 6.55621C25.004 6.53006 25.6697 6.53848 26.3337 6.58139C26.605 6.66266 26.832 6.85028 26.9628 7.10153C27.61 8.15771 27.6269 9.48346 27.0069 10.5558C26.8105 10.9841 26.3614 11.2378 25.8932 11.185C25.3836 11.1494 24.8698 11.185 24.3601 11.185C24.2699 10.6082 24.1986 10.1364 24.1252 9.65186L22.7556 9.65186C22.5963 12.6482 22.4368 15.6439 22.2775 18.6389C23.3261 18.7647 23.3408 18.9702 23.6722 17.1099C24.2489 17.1099 24.8508 17.0701 25.4444 17.1288C25.722 17.1742 25.975 17.3151 26.1596 17.5273C26.9377 18.4501 26.9461 20.3125 26.2183 21.2773C26.0208 21.5902 25.6666 21.7685 25.2976 21.7408C24.8593 21.7094 24.4209 21.7072 23.9805 21.7072C23.7225 21.7072 23.5799 21.6108 23.5945 21.3381C23.5956 21.3228 23.5956 21.3073 23.5945 21.292C23.41 19.9077 23.6218 20.1825 22.202 20.1804L22.202 20.1804ZM17.3907 8.88214C17.4042 9.67343 18.0424 10.3116 18.8337 10.3251C19.6465 10.3182 20.3018 9.65726 20.3018 8.84439C20.2637 8.06277 19.6136 7.45166 18.8312 7.46182C18.0487 7.47198 17.4148 8.09982 17.397 8.88214L17.3907 8.88214ZM6.67126 8.76468C6.67126 9.60361 7.2438 10.2978 7.99255 10.3251C8.80222 10.322 9.46323 9.67679 9.48584 8.86746C9.50262 8.02853 8.89859 7.33643 8.15195 7.32175C7.76175 7.30798 7.3829 7.45432 7.10327 7.72681C6.82364 7.99933 6.66757 8.37427 6.67126 8.76468L6.67126 8.76468ZM19.8424 19.505C19.8127 18.7232 19.1703 18.1047 18.3879 18.1047C17.6055 18.1047 16.9631 18.7232 16.9334 19.505C16.9132 20.0379 17.1859 20.5391 17.6442 20.8115C18.1026 21.084 18.6732 21.084 19.1316 20.8115C19.59 20.5391 19.8627 20.0379 19.8424 19.5051L19.8424 19.505ZM7.28992 30.2937C7.28375 30.6813 7.43353 31.0551 7.70566 31.3312C7.97778 31.6072 8.34943 31.7624 8.73709 31.7618C9.52786 31.7422 10.1662 31.1094 10.1926 30.3188C10.1961 29.9294 10.0421 29.555 9.76578 29.2806C9.48938 29.0062 9.11392 28.8549 8.72452 28.8612C8.34216 28.8537 7.97324 29.0022 7.70264 29.2724C7.43201 29.5426 7.28302 29.9113 7.28992 30.2937L7.28992 30.2937ZM18.886 28.8654C18.5043 28.8625 18.1375 29.0135 17.8684 29.2841C17.5993 29.5548 17.4505 29.9225 17.4556 30.3041C17.4522 30.6945 17.6058 31.0699 17.8819 31.346C18.158 31.6221 18.5333 31.7757 18.9237 31.7723C19.714 31.7409 20.3461 31.1051 20.373 30.3146C20.3714 29.9242 20.213 29.5508 19.9334 29.2782C19.6537 29.0057 19.2764 28.857 18.886 28.8654L18.886 28.8654ZM8.61978 17.9593C8.23822 17.9543 7.87036 18.1015 7.59763 18.3683C7.32486 18.6352 7.16965 18.9997 7.16632 19.3813C7.14001 19.9113 7.40509 20.4135 7.85757 20.6908C8.31006 20.968 8.87781 20.9763 9.3381 20.7122C9.79843 20.4481 10.0779 19.9538 10.0669 19.4232C10.0797 19.0345 9.93182 18.6577 9.65799 18.3815C9.38416 18.1053 9.00861 17.9541 8.61978 17.9635L8.61978 17.9593ZM19.36 49.0227L19.36 44.18L7.96948 44.18L7.96948 49.0227L19.36 49.0227Z" id="Shape" fill="url(#gradient_1)" fill-rule="evenodd" stroke="none" />
</svg>