<?xml version="1.0" encoding="utf-8"?>
<svg width="41.957275px" height="48px" viewBox="0 0 41.957275 48" version="1.1" xmlns:xlink="http://www.w3.org/1999/xlink" xmlns="http://www.w3.org/2000/svg">
  <g id="Group">
    <path d="M0 14.3223C0 2.33443 8.56456 0.0537576 20.9227 0.000853621C33.2808 -0.0520504 41.9572 2.33443 41.9572 14.3223C41.9572 26.3101 28.201 48.0528 20.9227 47.9999C13.6444 47.947 0 26.3101 0 14.3223L0 14.3223Z" id="Vector" fill="#5D9CEC" fill-rule="evenodd" stroke="none" />
    <path d="M11.2109 17.0075C11.2109 11.8169 15.4187 7.6091 20.6093 7.6091C25.7999 7.6091 30.0078 11.8169 30.0078 17.0075C30.0078 22.1981 25.7999 26.4059 20.6093 26.4059C15.4187 26.4059 11.2109 22.1981 11.2109 17.0075L11.2109 17.0075Z" id="Path-2" fill="#FFFFFF" fill-rule="evenodd" stroke="none" />
    <path d="M23.0044 12.4592L18.6216 13.7999C18.09 13.951 17.66 14.5042 17.66 15.0358L17.66 19.5958C17.66 19.5958 17.66 19.6574 17.66 19.659C17.66 19.659 17.3426 19.4448 16.6352 19.5449C15.5966 19.6929 14.7536 20.4896 14.7536 21.3264C14.7536 22.1632 15.5966 22.6748 16.6352 22.5268C17.6754 22.3804 18.4367 21.6084 18.4367 20.7716C18.4367 20.7716 18.4367 17.1948 18.4367 16.8235C18.4367 16.4536 18.8821 16.2933 18.8821 16.2933L22.7578 15.079C22.7578 15.079 23.1862 14.9357 23.1862 15.3317C23.1862 15.7293 23.1862 18.5001 23.1862 18.5001C23.1862 18.5001 23.1862 18.5016 23.1862 18.5032C23.1862 18.5032 22.7917 18.2751 22.0844 18.3614C21.0457 18.4878 20.2028 19.2675 20.2028 20.1043C20.2028 20.9411 21.0457 21.4697 22.0844 21.3433C23.123 21.2185 23.966 20.4372 23.966 19.6004L23.966 13.145C23.966 12.6149 23.5345 12.3067 23.0044 12.4592L23.0044 12.4592Z" id="Shape" fill="#4A89DC" stroke="none" />
    <path d="M12.8882 30.4268L28.3304 30.4268Q28.4074 30.4268 28.483 30.4418Q28.5586 30.4569 28.6297 30.4864Q28.7009 30.5158 28.765 30.5586Q28.829 30.6014 28.8835 30.6559Q28.938 30.7104 28.9808 30.7744Q29.0236 30.8385 29.0531 30.9097Q29.0825 30.9809 29.0976 31.0564Q29.1126 31.132 29.1126 31.209L29.1126 31.211Q29.1126 31.2881 29.0976 31.3636Q29.0825 31.4392 29.0531 31.5104Q29.0236 31.5815 28.9808 31.6456Q28.938 31.7096 28.8835 31.7641Q28.829 31.8186 28.765 31.8614Q28.7009 31.9042 28.6297 31.9337Q28.5586 31.9632 28.483 31.9782Q28.4074 31.9932 28.3304 31.9932L12.8882 31.9932Q12.8111 31.9932 12.7356 31.9782Q12.66 31.9632 12.5888 31.9337Q12.5176 31.9042 12.4536 31.8614Q12.3895 31.8186 12.3351 31.7641Q12.2806 31.7096 12.2378 31.6456Q12.195 31.5815 12.1655 31.5104Q12.136 31.4392 12.121 31.3636Q12.106 31.2881 12.106 31.211L12.106 31.209Q12.106 31.132 12.121 31.0564Q12.136 30.9809 12.1655 30.9097Q12.195 30.8385 12.2378 30.7744Q12.2806 30.7104 12.3351 30.6559Q12.3895 30.6014 12.4536 30.5586Q12.5176 30.5158 12.5888 30.4864Q12.66 30.4569 12.7356 30.4418Q12.8111 30.4268 12.8882 30.4268Z" id="Rectangle-3" fill="#FFFFFF" fill-rule="evenodd" stroke="none" />
    <path d="M12.8882 32.9932L28.3304 32.9932Q28.4074 32.9932 28.483 33.0083Q28.5586 33.0233 28.6297 33.0528Q28.7009 33.0822 28.765 33.125Q28.829 33.1678 28.8835 33.2223Q28.938 33.2768 28.9808 33.3409Q29.0236 33.4049 29.0531 33.4761Q29.0825 33.5473 29.0976 33.6228Q29.1126 33.6984 29.1126 33.7754L29.1126 33.7774Q29.1126 33.8545 29.0976 33.93Q29.0825 34.0056 29.0531 34.0768Q29.0236 34.1479 28.9808 34.212Q28.938 34.276 28.8835 34.3305Q28.829 34.385 28.765 34.4278Q28.7009 34.4706 28.6297 34.5001Q28.5586 34.5296 28.483 34.5446Q28.4074 34.5596 28.3304 34.5596L12.8882 34.5596Q12.8111 34.5596 12.7356 34.5446Q12.66 34.5296 12.5888 34.5001Q12.5176 34.4706 12.4536 34.4278Q12.3895 34.385 12.3351 34.3305Q12.2806 34.276 12.2378 34.212Q12.195 34.1479 12.1655 34.0768Q12.136 34.0056 12.121 33.93Q12.106 33.8545 12.106 33.7774L12.106 33.7754Q12.106 33.6984 12.121 33.6228Q12.136 33.5473 12.1655 33.4761Q12.195 33.4049 12.2378 33.3409Q12.2806 33.2768 12.3351 33.2223Q12.3895 33.1678 12.4536 33.125Q12.5176 33.0822 12.5888 33.0528Q12.66 33.0233 12.7356 33.0083Q12.8111 32.9932 12.8882 32.9932Z" id="Rectangle-3-Copy" fill="#FFFFFF" fill-rule="evenodd" stroke="none" />
    <path d="M16.6924 35.5596L24.7501 35.5596Q24.8272 35.5596 24.9027 35.5747Q24.9783 35.5897 25.0495 35.6192Q25.1206 35.6486 25.1847 35.6914Q25.2488 35.7342 25.3032 35.7887Q25.3577 35.8432 25.4005 35.9073Q25.4433 35.9713 25.4728 36.0425Q25.5023 36.1137 25.5173 36.1892Q25.5323 36.2648 25.5323 36.3418L25.5323 36.3438Q25.5323 36.4209 25.5173 36.4964Q25.5023 36.572 25.4728 36.6432Q25.4433 36.7143 25.4005 36.7784Q25.3577 36.8425 25.3032 36.8969Q25.2488 36.9514 25.1847 36.9942Q25.1206 37.037 25.0495 37.0665Q24.9783 37.096 24.9027 37.111Q24.8272 37.126 24.7501 37.126L16.6924 37.126Q16.6153 37.126 16.5398 37.111Q16.4642 37.096 16.393 37.0665Q16.3218 37.037 16.2578 36.9942Q16.1937 36.9514 16.1393 36.8969Q16.0848 36.8425 16.042 36.7784Q15.9992 36.7143 15.9697 36.6432Q15.9402 36.572 15.9252 36.4964Q15.9102 36.4209 15.9102 36.3438L15.9102 36.3418Q15.9102 36.2648 15.9252 36.1892Q15.9402 36.1137 15.9697 36.0425Q15.9992 35.9713 16.042 35.9073Q16.0848 35.8432 16.1393 35.7887Q16.1937 35.7343 16.2578 35.6915Q16.3218 35.6487 16.393 35.6192Q16.4642 35.5897 16.5398 35.5747Q16.6153 35.5596 16.6924 35.5596Z" id="Rectangle-3-Copy-2" fill="#FFFFFF" fill-rule="evenodd" stroke="none" />
  </g>
</svg>